# xmcd
#
# Track frame offsets:
#	150
#	15758
#	39513
#	62553
#	87103
#	107955
#	123665
#	143135
#	155083
#
# Disc length: 2306 seconds
# Revision: 1
# Processed by: cddbd v1.5.2PL0 Copyright (c) Steve Scherf et al.
# Submitted via: dBpowerAMP V12.0
#
DISCID=6f090009
DTITLE=Trudy Lynn - Come to Mama
DYEAR=1990
DGENRE=Soul
TTITLE0=Right Back in The Water
TTITLE1=When Something is Wrong With my Baby and I've Been Loving You Too Long (Medley)
TTITLE2=Come to MaMa
TTITLE3=When You Took Your Love From me
TTITLE4=One Woman Man
TTITLE5=Woman's Gotta Have it
TTITLE6=Do I Need You (Too)
TTITLE7=Fish Girl Blues
TTITLE8=Making Love to me
EXTD=
EXTT0=
EXTT1=
EXTT2=
EXTT3=
EXTT4=
EXTT5=
EXTT6=
EXTT7=
EXTT8=
PLAYORDER=
